<svg width="900" height="900" xmlns="http://www.w3.org/2000/svg"
  xmlns:xlink="http://www.w3.org/1999/xlink">
 <g id="board">
  <ellipse id="queen" cx="25" cy="25" rx="20" ry="20" class="promotion" style="visibility: hidden" fill="red" stroke="white" onClick="setFigure(evt)"/>
  <ellipse id="rook" cx="75" cy="25" rx="20" ry="20" class="promotion" style="visibility: hidden" fill="red" stroke="white" onClick="setFigure(evt)"/>
  <ellipse id="knight" cx="25" cy="75" rx="20" ry="20" class="promotion" style="visibility: hidden" fill="red" stroke="white" onClick="setFigure(evt)"/>
  <ellipse id="bishop" cx="75" cy="75" rx="20" ry="20" class="promotion" style="visibility: hidden" fill="red" stroke="white" onClick="setFigure(evt)"/>
  <text x="20" y="30" fill="white" class="text">Q</text>
  <text x="70" y="30" fill="white" class="text">R</text>
  <text x="20" y="80" fill="white" class="text">K</text>
  <text x="70" y="80" fill="white" class="text">B</text>
  <text x="150" y="50" font-size="40" fill="black">a</text>
  <text x="250" y="50" font-size="40" fill="black">b</text>
  <text x="350" y="50" font-size="40" fill="black">c</text>
  <text x="450" y="50" font-size="40" fill="black">d</text>
  <text x="550" y="50" font-size="40" fill="black">e</text>
  <text x="650" y="50" font-size="40" fill="black">f</text>
  <text x="750" y="50" font-size="40" fill="black">g</text>
  <text x="850" y="50" font-size="40" fill="black">h</text>
  <text x="50" y="150" font-size="40" fill="black">8</text>
  <text x="50" y="250" font-size="40" fill="black">7</text>
  <text x="50" y="350" font-size="40" fill="black">6</text>
  <text x="50" y="450" font-size="40" fill="black">5</text>
  <text x="50" y="550" font-size="40" fill="black">4</text>
  <text x="50" y="650" font-size="40" fill="black">3</text>
  <text x="50" y="750" font-size="40" fill="black">2</text>
  <text x="50" y="850" font-size="40" fill="black">1</text>
  <rect id="1-1" class="rect" height="100" width="100" y="800" x="100" stroke="black" fill="black"/>
  <rect id="2-1" class="rect" height="100" width="100" y="800" x="200" stroke="black" fill="white"/>
  <rect id="3-1" class="rect" height="100" width="100" y="800" x="300" stroke="black" fill="black"/>
  <rect id="4-1" class="rect" height="100" width="100" y="800" x="400" stroke="black" fill="white"/>
  <rect id="5-1" class="rect" height="100" width="100" y="800" x="500" stroke="black" fill="black"/>
  <rect id="6-1" class="rect" height="100" width="100" y="800" x="600" stroke="black" fill="white"/>
  <rect id="7-1" class="rect" height="100" width="100" y="800" x="700" stroke="black" fill="black"/>
  <rect id="8-1" class="rect" height="100" width="100" y="800" x="800" stroke="black" fill="white"/>
  <rect id="1-2" class="rect" height="100" width="100" y="700" x="100" stroke="black" fill="white"/>
  <rect id="2-2" class="rect" height="100" width="100" y="700" x="200" stroke="black" fill="black"/>
  <rect id="3-2" class="rect" height="100" width="100" y="700" x="300" stroke="black" fill="white"/>
  <rect id="4-2" class="rect" height="100" width="100" y="700" x="400" stroke="black" fill="black"/>
  <rect id="5-2" class="rect" height="100" width="100" y="700" x="500" stroke="black" fill="white"/>
  <rect id="6-2" class="rect" height="100" width="100" y="700" x="600" stroke="black" fill="black"/>
  <rect id="7-2" class="rect" height="100" width="100" y="700" x="700" stroke="black" fill="white"/>
  <rect id="8-2" class="rect" height="100" width="100" y="700" x="800" stroke="black" fill="black"/>
  <rect id="1-3" class="rect" height="100" width="100" y="600" x="100" stroke="black" fill="black"/>
  <rect id="2-3" class="rect" height="100" width="100" y="600" x="200" stroke="black" fill="white"/>
  <rect id="3-3" class="rect" height="100" width="100" y="600" x="300" stroke="black" fill="black"/>
  <rect id="4-3" class="rect" height="100" width="100" y="600" x="400" stroke="black" fill="white"/>
  <rect id="5-3" class="rect" height="100" width="100" y="600" x="500" stroke="black" fill="black"/>
  <rect id="6-3" class="rect" height="100" width="100" y="600" x="600" stroke="black" fill="white"/>
  <rect id="7-3" class="rect" height="100" width="100" y="600" x="700" stroke="black" fill="black"/>
  <rect id="8-3" class="rect" height="100" width="100" y="600" x="800" stroke="black" fill="white"/>
  <rect id="1-4" class="rect" height="100" width="100" y="500" x="100" stroke="black" fill="white"/>
  <rect id="2-4" class="rect" height="100" width="100" y="500" x="200" stroke="black" fill="black"/>
  <rect id="3-4" class="rect" height="100" width="100" y="500" x="300" stroke="black" fill="white"/>
  <rect id="4-4" class="rect" height="100" width="100" y="500" x="400" stroke="black" fill="black"/>
  <rect id="5-4" class="rect" height="100" width="100" y="500" x="500" stroke="black" fill="white"/>
  <rect id="6-4" class="rect" height="100" width="100" y="500" x="600" stroke="black" fill="black"/>
  <rect id="7-4" class="rect" height="100" width="100" y="500" x="700" stroke="black" fill="white"/>
  <rect id="8-4" class="rect" height="100" width="100" y="500" x="800" stroke="black" fill="black"/>
  <rect id="1-5" class="rect" height="100" width="100" y="400" x="100" stroke="black" fill="black"/>
  <rect id="2-5" class="rect" height="100" width="100" y="400" x="200" stroke="black" fill="white"/>
  <rect id="3-5" class="rect" height="100" width="100" y="400" x="300" stroke="black" fill="black"/>
  <rect id="4-5" class="rect" height="100" width="100" y="400" x="400" stroke="black" fill="white"/>
  <rect id="5-5" class="rect" height="100" width="100" y="400" x="500" stroke="black" fill="black"/>
  <rect id="6-5" class="rect" height="100" width="100" y="400" x="600" stroke="black" fill="white"/>
  <rect id="7-5" class="rect" height="100" width="100" y="400" x="700" stroke="black" fill="black"/>
  <rect id="8-5" class="rect" height="100" width="100" y="400" x="800" stroke="black" fill="white"/>
  <rect id="1-6" class="rect" height="100" width="100" y="300" x="100" stroke="black" fill="white"/>
  <rect id="2-6" class="rect" height="100" width="100" y="300" x="200" stroke="black" fill="black"/>
  <rect id="3-6" class="rect" height="100" width="100" y="300" x="300" stroke="black" fill="white"/>
  <rect id="4-6" class="rect" height="100" width="100" y="300" x="400" stroke="black" fill="black"/>
  <rect id="5-6" class="rect" height="100" width="100" y="300" x="500" stroke="black" fill="white"/>
  <rect id="6-6" class="rect" height="100" width="100" y="300" x="600" stroke="black" fill="black"/>
  <rect id="7-6" class="rect" height="100" width="100" y="300" x="700" stroke="black" fill="white"/>
  <rect id="8-6" class="rect" height="100" width="100" y="300" x="800" stroke="black" fill="black"/>
  <rect id="1-7" class="rect" height="100" width="100" y="200" x="100" stroke="black" fill="black"/>
  <rect id="2-7" class="rect" height="100" width="100" y="200" x="200" stroke="black" fill="white"/>
  <rect id="3-7" class="rect" height="100" width="100" y="200" x="300" stroke="black" fill="black"/>
  <rect id="4-7" class="rect" height="100" width="100" y="200" x="400" stroke="black" fill="white"/>
  <rect id="5-7" class="rect" height="100" width="100" y="200" x="500" stroke="black" fill="black"/>
  <rect id="6-7" class="rect" height="100" width="100" y="200" x="600" stroke="black" fill="white"/>
  <rect id="7-7" class="rect" height="100" width="100" y="200" x="700" stroke="black" fill="black"/>
  <rect id="8-7" class="rect" height="100" width="100" y="200" x="800" stroke="black" fill="white"/>
  <rect id="1-8" class="rect" height="100" width="100" y="100" x="100" stroke="black" fill="white"/>
  <rect id="2-8" class="rect" height="100" width="100" y="100" x="200" stroke="black" fill="black"/>
  <rect id="3-8" class="rect" height="100" width="100" y="100" x="300" stroke="black" fill="white"/>
  <rect id="4-8" class="rect" height="100" width="100" y="100" x="400" stroke="black" fill="black"/>
  <rect id="5-8" class="rect" height="100" width="100" y="100" x="500" stroke="black" fill="white"/>
  <rect id="6-8" class="rect" height="100" width="100" y="100" x="600" stroke="black" fill="black"/>
  <rect id="7-8" class="rect" height="100" width="100" y="100" x="700" stroke="black" fill="white"/>
  <rect id="8-8" class="rect" height="100" width="100" y="100" x="800" stroke="black" fill="black"/>
  <image xlink:href="" class="image" id="1_1" onClick="click(evt)" height="100" width="100" y="800" x="100"/>
  <image xlink:href="" class="image" id="2_1" onClick="click(evt)" height="100" width="100" y="800" x="200"/>
  <image xlink:href="" class="image" id="3_1" onClick="click(evt)" height="100" width="100" y="800" x="300"/>
  <image xlink:href="" class="image" id="4_1" onClick="click(evt)" height="100" width="100" y="800" x="400"/>
  <image xlink:href="" class="image" id="5_1" onClick="click(evt)" height="100" width="100" y="800" x="500"/>
  <image xlink:href="" class="image" id="6_1" onClick="click(evt)" height="100" width="100" y="800" x="600"/>
  <image xlink:href="" class="image" id="7_1" onClick="click(evt)" height="100" width="100" y="800" x="700"/>
  <image xlink:href="" class="image" id="8_1" onClick="click(evt)" height="100" width="100" y="800" x="800"/>
  <image xlink:href="" class="image" id="1_2" onClick="click(evt)" height="100" width="100" y="700" x="100"/>
  <image xlink:href="" class="image" id="2_2" onClick="click(evt)" height="100" width="100" y="700" x="200"/>
  <image xlink:href="" class="image" id="3_2" onClick="click(evt)" height="100" width="100" y="700" x="300"/>
  <image xlink:href="" class="image" id="4_2" onClick="click(evt)" height="100" width="100" y="700" x="400"/>
  <image xlink:href="" class="image" id="5_2" onClick="click(evt)" height="100" width="100" y="700" x="500"/>
  <image xlink:href="" class="image" id="6_2" onClick="click(evt)" height="100" width="100" y="700" x="600"/>
  <image xlink:href="" class="image" id="7_2" onClick="click(evt)" height="100" width="100" y="700" x="700"/>
  <image xlink:href="" class="image" id="8_2" onClick="click(evt)" height="100" width="100" y="700" x="800"/>
  <image xlink:href="" class="image" id="1_3" onClick="click(evt)" height="100" width="100" y="600" x="100"/>
  <image xlink:href="" class="image" id="2_3" onClick="click(evt)" height="100" width="100" y="600" x="200"/>
  <image xlink:href="" class="image" id="3_3" onClick="click(evt)" height="100" width="100" y="600" x="300"/>
  <image xlink:href="" class="image" id="4_3" onClick="click(evt)" height="100" width="100" y="600" x="400"/>
  <image xlink:href="" class="image" id="5_3" onClick="click(evt)" height="100" width="100" y="600" x="500"/>
  <image xlink:href="" class="image" id="6_3" onClick="click(evt)" height="100" width="100" y="600" x="600"/>
  <image xlink:href="" class="image" id="7_3" onClick="click(evt)" height="100" width="100" y="600" x="700"/>
  <image xlink:href="" class="image" id="8_3" onClick="click(evt)" height="100" width="100" y="600" x="800"/>
  <image xlink:href="" class="image" id="1_4" onClick="click(evt)" height="100" width="100" y="500" x="100"/>
  <image xlink:href="" class="image" id="2_4" onClick="click(evt)" height="100" width="100" y="500" x="200"/>
  <image xlink:href="" class="image" id="3_4" onClick="click(evt)" height="100" width="100" y="500" x="300"/>
  <image xlink:href="" class="image" id="4_4" onClick="click(evt)" height="100" width="100" y="500" x="400"/>
  <image xlink:href="" class="image" id="5_4" onClick="click(evt)" height="100" width="100" y="500" x="500"/>
  <image xlink:href="" class="image" id="6_4" onClick="click(evt)" height="100" width="100" y="500" x="600"/>
  <image xlink:href="" class="image" id="7_4" onClick="click(evt)" height="100" width="100" y="500" x="700"/>
  <image xlink:href="" class="image" id="8_4" onClick="click(evt)" height="100" width="100" y="500" x="800"/>
  <image xlink:href="" class="image" id="1_5" onClick="click(evt)" height="100" width="100" y="400" x="100"/>
  <image xlink:href="" class="image" id="2_5" onClick="click(evt)" height="100" width="100" y="400" x="200"/>
  <image xlink:href="" class="image" id="3_5" onClick="click(evt)" height="100" width="100" y="400" x="300"/>
  <image xlink:href="" class="image" id="4_5" onClick="click(evt)" height="100" width="100" y="400" x="400"/>
  <image xlink:href="" class="image" id="5_5" onClick="click(evt)" height="100" width="100" y="400" x="500"/>
  <image xlink:href="" class="image" id="6_5" onClick="click(evt)" height="100" width="100" y="400" x="600"/>
  <image xlink:href="" class="image" id="7_5" onClick="click(evt)" height="100" width="100" y="400" x="700"/>
  <image xlink:href="" class="image" id="8_5" onClick="click(evt)" height="100" width="100" y="400" x="800"/>
  <image xlink:href="" class="image" id="1_6" onClick="click(evt)" height="100" width="100" y="300" x="100"/>
  <image xlink:href="" class="image" id="2_6" onClick="click(evt)" height="100" width="100" y="300" x="200"/>
  <image xlink:href="" class="image" id="3_6" onClick="click(evt)" height="100" width="100" y="300" x="300"/>
  <image xlink:href="" class="image" id="4_6" onClick="click(evt)" height="100" width="100" y="300" x="400"/>
  <image xlink:href="" class="image" id="5_6" onClick="click(evt)" height="100" width="100" y="300" x="500"/>
  <image xlink:href="" class="image" id="6_6" onClick="click(evt)" height="100" width="100" y="300" x="600"/>
  <image xlink:href="" class="image" id="7_6" onClick="click(evt)" height="100" width="100" y="300" x="700"/>
  <image xlink:href="" class="image" id="8_6" onClick="click(evt)" height="100" width="100" y="300" x="800"/>
  <image xlink:href="" class="image" id="1_7" onClick="click(evt)" height="100" width="100" y="200" x="100"/>
  <image xlink:href="" class="image" id="2_7" onClick="click(evt)" height="100" width="100" y="200" x="200"/>
  <image xlink:href="" class="image" id="3_7" onClick="click(evt)" height="100" width="100" y="200" x="300"/>
  <image xlink:href="" class="image" id="4_7" onClick="click(evt)" height="100" width="100" y="200" x="400"/>
  <image xlink:href="" class="image" id="5_7" onClick="click(evt)" height="100" width="100" y="200" x="500"/>
  <image xlink:href="" class="image" id="6_7" onClick="click(evt)" height="100" width="100" y="200" x="600"/>
  <image xlink:href="" class="image" id="7_7" onClick="click(evt)" height="100" width="100" y="200" x="700"/>
  <image xlink:href="" class="image" id="8_7" onClick="click(evt)" height="100" width="100" y="200" x="800"/>
  <image xlink:href="" class="image" id="1_8" onClick="click(evt)" height="100" width="100" y="100" x="100"/>
  <image xlink:href="" class="image" id="2_8" onClick="click(evt)" height="100" width="100" y="100" x="200"/>
  <image xlink:href="" class="image" id="3_8" onClick="click(evt)" height="100" width="100" y="100" x="300"/>
  <image xlink:href="" class="image" id="4_8" onClick="click(evt)" height="100" width="100" y="100" x="400"/>
  <image xlink:href="" class="image" id="5_8" onClick="click(evt)" height="100" width="100" y="100" x="500"/>
  <image xlink:href="" class="image" id="6_8" onClick="click(evt)" height="100" width="100" y="100" x="600"/>
  <image xlink:href="" class="image" id="7_8" onClick="click(evt)" height="100" width="100" y="100" x="700"/>
  <image xlink:href="" class="image" id="8_8" onClick="click(evt)" height="100" width="100" y="100" x="800"/>
  </g>
</svg>